<!-- icon666.com - MILLIONS vector ICONS FREE --><svg version="1.1" id="Capa_1" xmlns="http://www.w3.org/2000/svg" xmlns:xlink="http://www.w3.org/1999/xlink" x="0px" y="0px" viewBox="0 0 26.804 26.804" style="enable-background:new 0 0 26.804 26.804;" xml:space="preserve"><g><path d="M26.475,16.174c-0.09-0.502-0.55-0.978-1.049-1.082l-1.521-0.284l-0.326-0.669c-0.01-0.019-0.021-0.036-0.035-0.053 c0.25-0.338,0.466-0.744,0.582-1.137c0.35-0.125,0.628-0.42,0.711-0.75c0.118-0.476-0.007-0.906-0.273-1.021v-0.629 c0-1.562-1.189-2.695-2.83-2.695c-1.64,0-2.83,1.133-2.83,2.695l0.044,0.549c-0.312,0.195-0.438,0.627-0.318,1.1 c0.083,0.332,0.362,0.627,0.658,0.697c0.165,0.443,0.383,0.854,0.634,1.193c-0.015,0.017-0.024,0.033-0.034,0.051l-0.261,0.617 l-1.588,0.336c-0.362,0.076-0.701,0.353-0.896,0.688L16.7,15.687l-0.515-1.054c-0.027-0.058-0.074-0.097-0.126-0.125 c0.449-0.58,0.81-1.268,1.069-1.957c0.448-0.162,0.899-0.562,1.03-1.084c0.175-0.691-0.009-1.309-0.438-1.578v-0.99 c0-2.383-1.818-4.111-4.322-4.111S9.078,6.518,9.078,8.899v0.99c-0.429,0.268-0.613,0.885-0.439,1.578 c0.131,0.521,0.585,0.924,1.036,1.086c0.256,0.689,0.613,1.377,1.062,1.957c-0.051,0.029-0.096,0.067-0.123,0.123l-0.514,1.054 l-0.441,0.094c-0.194-0.336-0.533-0.61-0.896-0.688l-1.522-0.284l-0.326-0.669c-0.009-0.018-0.021-0.036-0.035-0.053 c0.25-0.338,0.466-0.744,0.581-1.137c0.35-0.125,0.629-0.42,0.711-0.75c0.119-0.476-0.006-0.906-0.275-1.021v-0.629 c0-1.562-1.19-2.695-2.83-2.695c-1.639,0-2.829,1.133-2.829,2.695l0.044,0.549c-0.313,0.195-0.438,0.627-0.319,1.1 c0.083,0.332,0.363,0.627,0.658,0.697c0.165,0.443,0.383,0.854,0.633,1.193C3.24,14.105,3.229,14.122,3.22,14.14l-0.261,0.616 l-1.587,0.336c-0.499,0.104-0.959,0.58-1.048,1.082l-0.309,1.731c-0.048,0.271,0.018,0.533,0.185,0.731 c0.167,0.199,0.412,0.31,0.688,0.31h4.963l-0.284,1.595C5.5,20.928,5.59,21.297,5.826,21.578c0.235,0.279,0.581,0.438,0.974,0.438 h13.204c0.394,0,0.738-0.156,0.975-0.438c0.235-0.28,0.328-0.649,0.259-1.036l-0.284-1.595h4.964c0.275,0,0.521-0.108,0.688-0.312 c0.167-0.198,0.231-0.459,0.185-0.729L26.475,16.174z M19.757,12.487l-0.043-0.08l-0.082,0.019c-0.123,0-0.389-0.149-0.441-0.367 c-0.064-0.26,0.005-0.453,0.156-0.461l0.137,0.072v-1.119c0-1.246,0.924-2.115,2.249-2.115s2.249,0.869,2.249,2.115v0.965 l0.07,0.142l0.138-0.072c0.08,0.021,0.149,0.213,0.084,0.475c-0.054,0.213-0.321,0.367-0.457,0.367l-0.082-0.016l-0.025,0.078 c-0.243,0.737-0.75,1.643-1.443,1.962c-0.175,0.082-0.354,0.123-0.534,0.123c-0.183,0-0.363-0.041-0.54-0.12 C20.499,14.135,19.997,13.229,19.757,12.487z M23.356,14.99l-1.104,0.64l-0.158-0.319l1.105-0.642L23.356,14.99z M21.368,15.308 l-0.156,0.319l-0.998-0.576l-0.117-0.043l0.165-0.342L21.368,15.308z M16.111,15.875l0.045,0.092l-0.289,0.168l-1.712,0.99 l-0.378-0.771l0.835-0.482l0.396-0.229l0.395-0.229l0.378-0.219l0.162,0.332L16.111,15.875z M10.141,12.003 c-0.239,0.051-0.79-0.25-0.899-0.686c-0.112-0.445-0.005-0.861,0.237-0.931c0.072-0.021,0.146-0.004,0.221,0.035V8.899 c0-2.154,1.656-3.49,3.698-3.49c2.043,0,3.699,1.336,3.699,3.49v1.522c0.073-0.039,0.147-0.056,0.221-0.035 c0.242,0.067,0.35,0.483,0.237,0.931c-0.108,0.432-0.656,0.729-0.896,0.686c-0.375,1.139-1.185,2.648-2.358,3.189 c-0.28,0.131-0.583,0.203-0.904,0.203c-0.326,0-0.63-0.072-0.913-0.201C11.312,14.658,10.518,13.169,10.141,12.003z M10.686,15.875 l0.169-0.348l0.162-0.332l0.378,0.219l0.395,0.229l0.395,0.229l0.835,0.482l-0.377,0.771l-1.712-0.99l-0.29-0.168L10.686,15.875z M3.092,12.487l-0.043-0.08l-0.083,0.019c-0.123,0-0.388-0.149-0.442-0.367c-0.066-0.26,0.005-0.453,0.156-0.461l0.136,0.072 v-1.119c0-1.246,0.925-2.115,2.249-2.115c1.325,0,2.25,0.869,2.25,2.115v0.965l0.071,0.142l0.137-0.072 c0.079,0.021,0.15,0.213,0.084,0.475c-0.053,0.213-0.321,0.367-0.457,0.367l-0.082-0.016L7.042,12.49 c-0.243,0.737-0.75,1.643-1.444,1.962c-0.174,0.082-0.353,0.123-0.534,0.123c-0.182,0-0.363-0.041-0.54-0.12 C3.833,14.135,3.332,13.229,3.092,12.487z M6.69,14.99l-1.105,0.64L5.428,15.31l1.106-0.642L6.69,14.99z M4.703,15.308 l-0.157,0.319l-0.997-0.576l-0.118-0.043l0.166-0.342L4.703,15.308z M5.95,18.376H2.976v-0.838c0-0.156-0.128-0.285-0.286-0.285 c-0.158,0-0.286,0.129-0.286,0.285v0.838H0.886c-0.104,0-0.193-0.037-0.25-0.105c-0.057-0.065-0.078-0.16-0.059-0.264l0.308-1.732 c0.049-0.273,0.331-0.564,0.603-0.623l1.436-0.303l1.602,0.928c0.032,0.021,0.067,0.031,0.139,0.031 c0.024,0,0.054-0.002,0.089-0.004c0.075-0.023,0.138-0.078,0.173-0.148l0.14-0.287l0.14,0.287c0.034,0.07,0.098,0.125,0.257,0.16 c0.051,0,0.099-0.014,0.144-0.039l1.56-0.938l1.478,0.312c0.146,0.029,0.291,0.131,0.405,0.256l-1.457,0.309 c-0.733,0.154-1.41,0.854-1.541,1.59L5.95,18.376z M20.507,21.187C20.39,21.328,20.21,21.406,20,21.406h-2.543v-1.469 c0-0.168-0.137-0.306-0.306-0.306c-0.168,0-0.305,0.138-0.305,0.306v1.469H9.948v-1.469c0-0.168-0.137-0.306-0.305-0.306 s-0.305,0.138-0.305,0.306v1.469H6.795c-0.209,0-0.389-0.078-0.507-0.219c-0.118-0.142-0.163-0.33-0.126-0.537l0.303-1.701 l0.102-0.571l0.083-0.464c0.088-0.493,0.576-0.998,1.067-1.102l1.565-0.33l0.56-0.117l0.208-0.045 c0.013,0.01,0.022,0.022,0.038,0.033l2.53,1.463c0.047,0.026,0.099,0.041,0.152,0.041c0.03,0,0.06-0.004,0.089-0.013 c0.081-0.024,0.148-0.082,0.185-0.157l0.354-0.726l0.354,0.726c0.037,0.075,0.104,0.133,0.185,0.157 c0.028,0.009,0.059,0.013,0.089,0.013c0.053,0,0.104-0.015,0.152-0.041l2.53-1.463c0.016-0.011,0.024-0.023,0.037-0.033 l0.208,0.043l0.562,0.119l1.562,0.33c0.491,0.104,0.979,0.606,1.067,1.102l0.083,0.464l0.103,0.571l0.303,1.701 C20.67,20.857,20.626,21.046,20.507,21.187z M26.16,18.271c-0.056,0.067-0.145,0.104-0.25,0.104h-1.517v-0.839 c0-0.155-0.128-0.284-0.286-0.284s-0.286,0.129-0.286,0.284v0.839h-2.975l-0.104-0.567c-0.131-0.738-0.808-1.439-1.541-1.593 l-1.455-0.31c0.113-0.125,0.259-0.226,0.404-0.256l1.436-0.304l1.603,0.929c0.032,0.021,0.066,0.03,0.138,0.03 c0.025,0,0.055-0.002,0.09-0.004c0.074-0.022,0.139-0.077,0.173-0.147l0.142-0.287l0.141,0.287c0.034,0.07,0.098,0.125,0.257,0.16 c0.051,0,0.1-0.015,0.145-0.039l1.561-0.938l1.478,0.312c0.272,0.057,0.554,0.348,0.604,0.623l0.308,1.731 C26.238,18.111,26.217,18.205,26.16,18.271z"></path></g></svg>