<svg width="24" height="24" viewBox="0 0 24 24" fill="none" xmlns="http://www.w3.org/2000/svg">
    <path d="M3.71806 18.3586C3.44122 18.3586 3.20888 18.2641 3.02103 18.0752C2.83318 17.8862 2.73926 17.6566 2.73926 17.3863C2.73926 17.116 2.83318 16.8884 3.02103 16.7035C3.20888 16.5185 3.44122 16.426 3.71806 16.426H20.3262C20.5868 16.426 20.8109 16.5204 20.9986 16.7091C21.1862 16.8977 21.28 17.1254 21.28 17.3921C21.28 17.6644 21.1862 17.8935 20.9986 18.0796C20.8109 18.2656 20.5868 18.3586 20.3262 18.3586H3.71806ZM3.71806 12.9597C3.44122 12.9597 3.20888 12.8638 3.02103 12.6721C2.83318 12.4803 2.73926 12.2511 2.73926 11.9844C2.73926 11.7121 2.83318 11.4845 3.02103 11.3016C3.20888 11.1186 3.44122 11.0271 3.71806 11.0271H20.3262C20.5868 11.0271 20.8109 11.1201 20.9986 11.306C21.1862 11.4918 21.28 11.7199 21.28 11.9902C21.28 12.2605 21.1862 12.4896 20.9986 12.6777C20.8109 12.8657 20.5868 12.9597 20.3262 12.9597H3.71806ZM3.71806 7.57385C3.44122 7.57385 3.20888 7.47797 3.02103 7.2862C2.83318 7.09445 2.73926 6.86524 2.73926 6.59855C2.73926 6.32629 2.83318 6.09767 3.02103 5.9127C3.20888 5.72774 3.44122 5.63525 3.71806 5.63525H20.3262C20.5868 5.63525 20.8109 5.72919 20.9986 5.91708C21.1862 6.10498 21.28 6.33406 21.28 6.60433C21.28 6.8746 21.1862 7.10375 20.9986 7.29178C20.8109 7.47983 20.5868 7.57385 20.3262 7.57385H3.71806Z" fill="white"/>
</svg>
